<?xml version="1.0" encoding="UTF-8" standalone="no"?>
<!-- Created with Inkscape (http://www.inkscape.org/) -->

<svg
   width="64.0px"
   height="64.0px"
   viewBox="0 0 64.0 64.0"
   version="1.1"
   id="SVGRoot"
   sodipodi:docname="pounce.svg"
   inkscape:version="1.1.1 (c3084ef, 2021-09-22)"
   xmlns:inkscape="http://www.inkscape.org/namespaces/inkscape"
   xmlns:sodipodi="http://sodipodi.sourceforge.net/DTD/sodipodi-0.dtd"
   xmlns="http://www.w3.org/2000/svg"
   xmlns:svg="http://www.w3.org/2000/svg">
  <sodipodi:namedview
     id="namedview7320"
     pagecolor="#ffffff"
     bordercolor="#666666"
     borderopacity="1.0"
     inkscape:pageshadow="2"
     inkscape:pageopacity="0.0"
     inkscape:pagecheckerboard="0"
     inkscape:document-units="px"
     showgrid="true"
     inkscape:zoom="4.4203918"
     inkscape:cx="40.60726"
     inkscape:cy="32.915635"
     inkscape:window-width="1312"
     inkscape:window-height="763"
     inkscape:window-x="0"
     inkscape:window-y="25"
     inkscape:window-maximized="0"
     inkscape:current-layer="layer2">
    <inkscape:grid
       type="xygrid"
       id="grid7326" />
  </sodipodi:namedview>
  <defs
     id="defs7315" />
  <g
     inkscape:label="Layer 1"
     inkscape:groupmode="layer"
     id="layer1"
     style="display:inline" />
  <g
     inkscape:groupmode="layer"
     id="layer4"
     inkscape:label="face up 1"
     style="display:inline">
    <text
       xml:space="preserve"
       style="font-style:normal;font-weight:normal;font-size:67.4342px;line-height:1.25;font-family:sans-serif;display:inline;fill:#000000;fill-opacity:1;stroke:none;stroke-width:1.68585"
       x="1.212727"
       y="51.694248"
       id="text16487"
       transform="scale(1.0284229,0.97236262)"><tspan
         sodipodi:role="line"
         id="tspan16485"
         x="1.212727"
         y="51.694248"
         style="stroke-width:1.68585">🂠</tspan></text>
  </g>
  <g
     inkscape:groupmode="layer"
     id="layer5"
     inkscape:label="face up 2"
     style="display:inline">
    <text
       xml:space="preserve"
       style="font-style:normal;font-weight:normal;font-size:67.4342px;line-height:1.25;font-family:sans-serif;display:inline;fill:#000000;fill-opacity:1;stroke:none;stroke-width:1.68585"
       x="2.9683073"
       y="50.393639"
       id="text16487-5"
       transform="scale(1.0284229,0.97236262)"><tspan
         sodipodi:role="line"
         id="tspan16485-5"
         x="2.9683073"
         y="50.393639"
         style="stroke-width:1.68585">🂠</tspan></text>
    <path
       style="fill:#ffffff;fill-opacity:1;stroke-width:0.124713"
       d="M 7.7033862,57.005364 C 7.4996071,56.863501 7.4877602,55.237195 7.5185503,31.630515 L 7.5514399,6.4072496 27.225273,6.3765462 c 14.433983,-0.022523 19.720164,0.00557 19.847788,0.1057975 0.242025,0.1899137 0.261908,50.3004093 0.02004,50.5290843 -0.229349,0.216847 -39.0781302,0.210867 -39.3897309,-0.006 z M 40.064628,31.751781 V 12.773698 H 27.431303 14.797976 v 18.978083 18.978081 h 12.633327 12.633325 z"
       id="path18859" />
  </g>
  <g
     inkscape:groupmode="layer"
     id="layer3"
     inkscape:label="face up"
     style="display:inline">
    <text
       xml:space="preserve"
       style="font-style:normal;font-weight:normal;font-size:67.4342px;line-height:1.25;font-family:sans-serif;display:inline;fill:#000000;fill-opacity:1;stroke:none;stroke-width:1.68585"
       x="4.5416627"
       y="52.864632"
       id="text16487-8"
       transform="scale(1.0284229,0.97236262)"><tspan
         sodipodi:role="line"
         id="tspan16485-2"
         x="4.5416627"
         y="52.864632"
         style="stroke-width:1.68585">🂠</tspan></text>
    <path
       style="fill:#ffffff;fill-opacity:1;stroke-width:0.124713"
       d="M 9.3707285,59.430677 C 9.1669494,59.288809 9.1551042,57.66251 9.1858926,34.05583 L 9.2187996,8.8325636 28.892633,8.8018602 c 14.433983,-0.022523 19.720163,0.00557 19.847787,0.1057975 0.145413,0.1141097 0.173958,4.2517593 0.173958,25.2149923 0,22.636939 -0.01963,25.097041 -0.201547,25.269049 -0.181453,0.171562 -2.141775,0.190562 -19.662953,0.190562 -15.367497,0 -19.5072112,-0.03188 -19.6791409,-0.151584 z M 41.73197,34.177094 V 15.199012 H 29.034516 16.33706 V 34.177094 53.155177 H 29.034516 41.73197 Z"
       id="path18820" />
  </g>
  <g
     inkscape:groupmode="layer"
     id="layer2"
     inkscape:label="ace"
     style="display:inline">
    <text
       xml:space="preserve"
       style="font-style:normal;font-weight:normal;font-size:67.4342px;line-height:1.25;font-family:sans-serif;fill:#000000;fill-opacity:1;stroke:none;stroke-width:1.68585"
       x="13.797261"
       y="44.105091"
       id="text8145"
       transform="matrix(1.0127988,0.168849,-0.17858377,0.95759028,0,0)"><tspan
         sodipodi:role="line"
         id="tspan8143"
         x="13.797261"
         y="44.105091"
         style="fill:#d40000;stroke-width:1.68585">🂱</tspan></text>
    <path
       style="fill:#ffffff;fill-opacity:1;stroke-width:0.18567"
       d="M 28.211719,56.498555 C 13.505378,54.030175 9.2016492,53.24971 9.1596537,53.04353 9.0960242,52.731135 18.237606,3.5635889 18.385279,3.4239662 c 0.055,-0.051998 8.582223,1.3180093 18.949392,3.044464 10.367169,1.7264548 19.07992,3.1729954 19.361667,3.2145343 0.281749,0.041539 0.552329,0.1742226 0.601286,0.2948528 0.0807,0.1988457 -8.881415,48.6409117 -9.143164,49.4206587 -0.06693,0.199364 -0.277778,0.323241 -0.52816,0.310301 -0.229219,-0.01184 -8.96578,-1.456449 -19.414581,-3.210222 z M 46.991283,55.66626 c 0.697654,-1.14297 1.268463,-2.149031 1.268463,-2.235687 0,-0.08665 -0.236296,-0.202623 -0.525105,-0.257699 -0.489301,-0.09331 -0.868765,0.133534 -1.043325,0.623715 -0.03005,0.08435 -0.441291,0.09133 -0.913886,0.01541 -0.74029,-0.11881 -0.86737,-0.203543 -0.91781,-0.611951 -0.05689,-0.460691 -0.445694,-0.682837 -1.205698,-0.68889 -0.278204,-0.0023 -0.263933,0.239455 0.141112,2.389674 0.247838,1.315676 0.491829,2.493692 0.542197,2.617812 0.05037,0.124125 0.382732,0.225674 0.738583,0.225674 0.624437,0 0.691251,-0.07249 1.91547,-2.07813 z m 2.018395,-4.535883 c 0.217665,-0.261632 0.395755,-0.723939 0.395755,-1.027348 0,-0.584784 -1.830327,-3.913122 -2.151912,-3.913122 -0.330067,0 -3.134404,2.349254 -3.357858,2.81295 -0.720498,1.49512 0.755564,2.830331 2.094338,1.894489 0.303169,-0.211924 0.551218,-0.301643 0.551218,-0.199374 0,0.407885 0.781222,0.9081 1.418248,0.9081 0.479589,0 0.760201,-0.127109 1.050211,-0.475695 z M 35,35 c 1.504423,-1.189633 2.963872,-2.387958 3.243216,-2.662948 1.046802,-1.030479 1.518521,-2.746987 1.064445,-3.873327 -0.265146,-0.657694 -1.152669,-1.392056 -1.958155,-1.620231 -1.044315,-0.295827 -2.044188,0.02457 -2.912485,0.933284 -0.497207,0.520349 -0.69016,0.633182 -0.692426,0.404905 -0.0057,-0.580051 -0.847801,-1.718997 -1.52146,-2.057922 -1.234298,-0.620986 -2.871886,-0.277835 -3.685584,0.772298 -0.552994,0.713678 -0.738389,1.957547 -0.448987,3.0124 0.202779,0.739122 3.882138,7.235621 4.106118,7.250012 C 32.233172,37.160871 33.495573,36.189634 35,35 Z M 20.867059,15.863189 c 1.780624,-1.417714 2.210548,-2.148894 1.806202,-3.071857 -0.373353,-0.852219 -1.515611,-1.063651 -2.304966,-0.42665 -0.257633,0.207907 -0.3586,0.166184 -0.721769,-0.298251 -0.549082,-0.70219 -1.477834,-0.744306 -2.121784,-0.09622 -0.651699,0.655889 -0.463811,1.641505 0.680335,3.568846 0.514344,0.866429 0.967641,1.5773 1.007326,1.579714 0.03969,0.0024 0.784278,-0.562599 1.654656,-1.255582 z M 22.670243,7.9016239 C 22.44838,6.6721514 22.164854,5.6048938 22.040186,5.5299434 21.91551,5.4549962 21.58382,5.3924255 21.30308,5.390901 c -0.455181,-0.00245 -0.647785,0.231446 -1.779327,2.1609564 -0.69789,1.1900483 -1.214979,2.2461998 -1.149088,2.3470048 0.225309,0.3446848 1.03546,0.1944528 1.342774,-0.2489993 0.168124,-0.242593 0.442363,-0.405808 0.624981,-0.3719523 1.366128,0.2532778 1.375622,0.2587727 1.375622,0.7962354 0,0.462305 0.0759,0.533659 0.620578,0.583312 0.449176,0.04095 0.636383,-0.02311 0.677795,-0.23193 0.03147,-0.158681 -0.124312,-1.2944348 -0.346172,-2.523909 z"
       id="path18019" />
    <path
       style="fill:#ffffff;fill-opacity:1;stroke-width:0.0351746"
       d="m 20.924806,8.3993684 -0.513614,-0.089848 0.457394,-0.837959 0.457394,-0.8379574 0.116592,0.8037558 c 0.06413,0.4420652 0.126237,0.8614726 0.138044,0.932015 0.02606,0.1558776 0.05596,0.154517 -0.655805,0.029999 z"
       id="path18058" />
    <path
       style="fill:#ffffff;fill-opacity:1;stroke-width:0.044998"
       d="m 45.17805,56.357037 c -0.06062,-0.325382 -0.21388,-1.632228 -0.193672,-1.651335 0.02563,-0.02423 0.953647,0.118025 1.028916,0.157714 0.0349,0.01839 -0.09309,0.302683 -0.376944,0.837307 -0.410527,0.773211 -0.43105,0.802599 -0.4583,0.656314 z"
       id="path18097" />
    <path
       style="fill:#000000;stroke-width:0.226224"
       d="M 28.421821,57.433432 C 17.800493,55.660137 8.9677346,54.154546 8.7934684,54.087674 8.1903591,53.85624 8.0706305,52.982442 8.4025519,51.23471 8.5792443,50.304335 10.655558,39.191329 13.016582,26.539139 15.377605,13.886949 17.373418,3.3682049 17.451721,3.1641511 c 0.0783,-0.2040538 0.358619,-0.4532253 0.622926,-0.5537144 0.449409,-0.170865 38.558745,6.0329424 39.557944,6.4396259 0.218815,0.08906 0.463506,0.423538 0.543757,0.743285 0.197164,0.7855614 -8.920203,49.7977574 -9.357521,50.3032054 -0.177661,0.205335 -0.494579,0.415574 -0.704259,0.467194 -0.209683,0.05162 -9.07142,-1.357022 -19.692747,-3.130315 z M 48.4136,59.327321 c 0.115384,-0.476198 1.037411,-5.400823 6.906972,-36.89073 C 56.993935,13.45907 57.563902,9.9663114 57.384771,9.7871791 57.248666,9.6510753 48.455253,8.0907722 37.843852,6.3198387 23.320789,3.8960897 18.486245,3.1642001 18.290957,3.3597742 18.062512,3.5885532 8.9345528,51.891448 8.9354914,52.866577 c 2.025e-4,0.210397 0.107377,0.448677 0.2381656,0.529509 0.3266475,0.201878 37.221351,6.387708 38.272579,6.416846 0.697734,0.01934 0.865407,-0.06483 0.967364,-0.485611 z"
       id="path142" />
  </g>
</svg>
