<svg width="64" height="64" viewBox="0 0 64 64" fill="none" xmlns="http://www.w3.org/2000/svg">
  <defs>
    <filter id="soft-shadow" x="-20%" y="-20%" width="140%" height="145%" color-interpolation-filters="sRGB">
      <feDropShadow dx="1.2" dy="2" stdDeviation="1.1" flood-color="#3b2f1f" flood-opacity=".26"/>
    </filter>
  </defs>

  <rect width="64" height="64" fill="#cfbe9e"/>

  <g filter="url(#soft-shadow)">
    <g transform="translate(17 12)">
      <rect x="-1.5" y="3.2" width="31" height="43" rx="3.5" fill="#f8efdc" stroke="#2b2924" stroke-width="1.9"/>
      <rect x=".5" y="5.2" width="27" height="39" rx="2.3" fill="#f8efdc" stroke="#0f5138" stroke-width="1.2"/>
      <path d="M3.6 8.5h20.8M3.6 40.9h20.8M5.5 10.3l18.2 28.8M23.6 10.3L5.4 39.1" stroke="#0f5138" stroke-width="1.2" stroke-linecap="round"/>
      <path d="M14.5 12.9c5.4 4 5.4 13.6 0 17.6-5.4-4-5.4-13.6 0-17.6Z" fill="#0f5138" opacity=".78"/>
      <circle cx="6.8" cy="10.5" r="3.4" stroke="#2b2924" stroke-width="1.1"/>
      <circle cx="22.2" cy="38.9" r="3.4" stroke="#2b2924" stroke-width="1.1"/>
    </g>
    <g transform="translate(17.8 14.4)">
      <rect x="-1.5" y="3.2" width="31" height="43" rx="3.5" fill="none" stroke="#2b2924" stroke-width="1.9"/>
    </g>
    <g transform="translate(18.6 16.8)">
      <rect x="-1.5" y="3.2" width="31" height="43" rx="3.5" fill="none" stroke="#2b2924" stroke-width="1.9"/>
    </g>

    <g transform="rotate(7 41 32)">
      <rect x="22.8" y="7.6" width="35.2" height="48.8" rx="4.2" fill="#fbf4e7" stroke="#2b2924" stroke-width="2.1"/>
      <text x="28" y="21.8" fill="#c91521" font-family="Georgia, serif" font-size="11.8" font-weight="700">A</text>
      <path d="M32.6 26.4c-1.1-1.8-4-.9-4 1.4 0 2.5 2.7 4 4 5.2 1.4-1.2 4-2.7 4-5.2 0-2.3-2.9-3.2-4-1.4Z" fill="#c91521"/>

      <g transform="translate(50.8 49.2) rotate(180)">
        <text x="0" y="0" fill="#c91521" font-family="Georgia, serif" font-size="9.4" font-weight="700" text-anchor="middle" dominant-baseline="middle">A</text>
        <path d="M0 5.1c-.8-1.2-2.8-.6-2.8 1 0 1.8 1.9 2.8 2.8 3.7.9-.9 2.8-1.9 2.8-3.7 0-1.6-2-2.2-2.8-1Z" fill="#c91521"/>
      </g>

      <path d="M40.7 34.6c-2.7-4.2-9.3-2-9.3 3.2 0 6 6.3 9.3 9.3 12.2 3-2.9 9.3-6.2 9.3-12.2 0-5.2-6.6-7.4-9.3-3.2Z" fill="#c91521"/>
    </g>
  </g>
</svg>
