<svg width="64" height="64" viewBox="0 0 64 64" fill="none" xmlns="http://www.w3.org/2000/svg">
  <rect width="64" height="64" fill="#cfbe9e"/>
  <circle cx="32" cy="34" r="26" fill="#e9dab7" opacity=".72"/>

  <g transform="translate(18 12)">
    <rect x="-1.5" y="2.5" width="31" height="43" rx="3.5" fill="#f8efdc" stroke="#2b2924" stroke-width="1.9"/>
    <rect x=".5" y="4.5" width="27" height="39" rx="2.3" fill="#f8efdc" stroke="#0f5138" stroke-width="1.2"/>
    <path d="M3.6 7.8h20.8M3.6 40.2h20.8M5.5 9.6l18.2 28.8M23.6 9.6L5.4 38.4" stroke="#0f5138" stroke-width="1.2" stroke-linecap="round"/>
    <path d="M14.5 12.2c5.4 4 5.4 13.6 0 17.6-5.4-4-5.4-13.6 0-17.6Z" fill="#0f5138" opacity=".78"/>
    <circle cx="6.8" cy="9.8" r="3.4" stroke="#2b2924" stroke-width="1.1"/>
    <circle cx="22.2" cy="38.2" r="3.4" stroke="#2b2924" stroke-width="1.1"/>
  </g>
  <g transform="translate(18.8 14.4)">
    <rect x="-1.5" y="2.5" width="31" height="43" rx="3.5" fill="none" stroke="#2b2924" stroke-width="1.9"/>
  </g>
  <g transform="translate(19.6 16.8)">
    <rect x="-1.5" y="2.5" width="31" height="43" rx="3.5" fill="none" stroke="#2b2924" stroke-width="1.9"/>
  </g>

  <g transform="rotate(7 39 33)">
    <rect x="25" y="10" width="31" height="43" rx="3.8" fill="#fbf4e7" stroke="#2b2924" stroke-width="2"/>
    <text x="30" y="24" fill="#c91521" font-family="Georgia, serif" font-size="11" font-weight="700">A</text>
    <path d="M34.8 28.6c-1.1-1.7-3.9-.8-3.9 1.3 0 2.4 2.6 3.8 3.9 5 1.3-1.2 3.9-2.6 3.9-5 0-2.1-2.8-3-3.9-1.3Z" fill="#c91521"/>
    <path d="M40.5 35.5c-2.4-3.7-8.2-1.8-8.2 2.8 0 5.3 5.5 8.2 8.2 10.8 2.7-2.6 8.2-5.5 8.2-10.8 0-4.6-5.8-6.5-8.2-2.8Z" fill="#c91521"/>
  </g>
</svg>
